<svg xmlns="http://www.w3.org/2000/svg" viewBox="0 0 1198.9 1096.84"><defs><style>.cls-1{fill:#3f3f3f;}.cls-2{fill:#f9f9f9;stroke:#333;stroke-width:23px;}.cls-2,.cls-3,.cls-5{stroke-miterlimit:10;}.cls-3{fill:none;stroke-width:5px;}.cls-3,.cls-5{stroke:#fff;}.cls-4,.cls-5{fill:#333;}.cls-5{font-size:257.51px;font-family:Gazelle-Regular, Gazelle;}.cls-6{letter-spacing:-0.03em;}.cls-7{letter-spacing:0.02em;}.cls-8{letter-spacing:0em;}.cls-9{letter-spacing:0.02em;}.cls-10{font-size:77.77px;fill:#fff;font-family:OptimusPrinceps;}</style></defs><g id="Calque_1" data-name="Calque 1"><path class="cls-1" d="M20.71,301.79Z" transform="translate(-0.83 -52.74)"/><rect class="cls-2" x="197.93" y="224.87" width="752.58" height="752.58" transform="translate(592.44 -282.7) rotate(45)"/><line class="cls-3" x1="40.93" y1="548.42" x2="573.39" y2="1080.88"/><line class="cls-3" x1="1106.11" y1="547.75" x2="571.16" y2="1083.11"/><path class="cls-4" d="M588.82,217.75a22.77,22.77,0,0,1-14.67-5.81,1.31,1.31,0,0,0-.66-.31c-1.91-.28-3.82-.58-5.66-.88l-5.68-.88c-3.14-.46-6.38-.93-9.63-1.19a2.86,2.86,0,0,1,.88-1.08c.83-.51,1.63,0,2,1.2a7.72,7.72,0,0,0,0-2.41c-.21-.84-.71-1.21-1.24-1.2a3.6,3.6,0,0,0-1.62.67c-.25.16-.52.31-.72.15s-.29-.51-.42-.8a.94.94,0,0,0-1.23-.59A3.09,3.09,0,0,0,548.8,206c-.27.46-.57,1.05-.87,1s-.3-.33-.43-.56a1.22,1.22,0,0,0-1.82-.65,4.26,4.26,0,0,0-1.63,2.61,1.35,1.35,0,0,1,1.89-.34,1.52,1.52,0,0,1,.41.4c-.8,0-1.6,0-2.39.1A60.06,60.06,0,0,0,531,210.82l-1.31.39a33.63,33.63,0,0,1-4.33,1.11,7.31,7.31,0,0,0-2.47-2.72,15.73,15.73,0,0,0-2.82-1.29l-.87-.34a21.22,21.22,0,0,1-11.39-11.06l0-.08a4.61,4.61,0,0,0-1-1.57,2.61,2.61,0,0,0-1.9-.72h0a2.15,2.15,0,0,0-1,.32c-.88.54-1.22,1.54-1,3A60.33,60.33,0,0,0,507,212.68c.59,1.38,1.22,2.74,2,4.18l-2.65.4c-1.46.22-3,.45-4.43.63a28.62,28.62,0,0,0-7.65,1.68,21.25,21.25,0,0,1-6.26-2.76c-1.1-.63-2.24-1.28-3.44-1.84a53.91,53.91,0,0,0-19.23-4.65,3.14,3.14,0,0,1,.18-.46,12.74,12.74,0,0,0,.8-1.56,1.94,1.94,0,0,0-.18-1.78c-.29-.34-1-.23-1.31-.05a1.33,1.33,0,0,0-.78,1,.74.74,0,0,1,.43-.1.4.4,0,0,1,.32.36.62.62,0,0,1-.09.38.93.93,0,0,1-.85.59,3.88,3.88,0,0,0-1-2.17,1.89,1.89,0,0,0-1.54-.36,2.14,2.14,0,0,0-1.28,1,2.5,2.5,0,0,0-2.39.68,2.57,2.57,0,0,0-.82,2.15c.64-.8,1.22-.62,2.12-.7a1.77,1.77,0,0,1,1.52.5,1.45,1.45,0,0,1,.23.34c-1.54,0-3.11,0-4.72,0h-.11c-2.52.3-5.06.68-7.51,1s-5,.73-7.45,1a72.77,72.77,0,0,0-7.72,1.23,71.34,71.34,0,0,0-9,3l-2.56,1a54.77,54.77,0,0,1-5.57,1.78c-.22.06-.82.13-1.35.19-2.63.31-4.27.55-4.83,1.68a1.25,1.25,0,0,0-.06,1,1.27,1.27,0,0,0,.7.74c3.51,1.51,7.91,1.84,11.75,2,1.44,0,2.91,0,4.35-.07.77-.05,1.55-.12,2.32-.2,1.22-.14,2.41-.38,3.56-.6.79-.16,1.6-.32,2.4-.44s1.72-.22,2.76-.29,2-.09,3-.12l.93,0c2.36-.08,4.49-.1,6.52-.06,3,.07,5.65.25,8.19.56a47.42,47.42,0,0,1,19.9,6.67,8.05,8.05,0,0,1,2.36,2l0,0a8.24,8.24,0,0,1,1.11,1.95,21.56,21.56,0,0,0-2.66,2.85,17.29,17.29,0,0,1-2.58,2.73c-.41.32-.87.62-1.36.93a18,18,0,0,0-1.53,1l-.64.52a5.34,5.34,0,0,1-1.51,1,5.49,5.49,0,0,1-1,.2,4.78,4.78,0,0,0-3.29,1.49c-.27.24-.6.55-.77.56h0l-.32,0a3.92,3.92,0,0,0-.88-.06h0a2,2,0,0,0-.42.06,3.13,3.13,0,0,0-1.2.62l-.17.13a1.29,1.29,0,0,0-.88-1.15,1.19,1.19,0,0,0-.49-.07,1.33,1.33,0,0,0-1,.58,2.93,2.93,0,0,0-.52,2.32,3,3,0,0,0,1.31,1.73l0,.12a2.94,2.94,0,0,0,.6,1.29,2.89,2.89,0,0,0,2.11.87,8,8,0,0,0,.85,0,8.17,8.17,0,0,0,3.61-1.09,16.3,16.3,0,0,0,1.69-1.16,2.4,2.4,0,0,0,.69,2.13,2.58,2.58,0,0,0,1.58.61l.19,0,.22.1a3.8,3.8,0,0,0,2.09.54,3.88,3.88,0,0,0,2.79-1.49,10.2,10.2,0,0,1,6-3.14,15.06,15.06,0,0,0,7.33-4.18,15,15,0,0,1,2.47-1.87l.7-.47a11.9,11.9,0,0,0,3.64-3.93c.3-.53,1.33-.87,2-1.1a17.59,17.59,0,0,1,2.3-.53,17.91,17.91,0,0,0,2.91-.72c1.19-.43,2.32-1,3.42-1.47.57-.27,1.16-.54,1.74-.79a14.5,14.5,0,0,1,4.88-1.37,7.31,7.31,0,0,1,1.89.12,9.68,9.68,0,0,0,2.59.2,6.7,6.7,0,0,0,.77-.08,5.84,5.84,0,0,0,3.45-1.69,6.16,6.16,0,0,0,1.34-2.46c1.64.85,3.31,1.8,4.93,2.72l2.81,1.58a111.07,111.07,0,0,0,10.29,5.17,1.32,1.32,0,0,0,.58.1,1.26,1.26,0,0,0,1-.57,1.27,1.27,0,0,0-.16-1.62c-1.8-1.81-3.61-3.69-5.37-5.51-.23-.25-.47-.5-.71-.74,2.59,1.22,5.3,2.59,8.16,4.13a1.35,1.35,0,0,0,.68.15,1.31,1.31,0,0,0,.84-.38,1.29,1.29,0,0,0,.22-1.52c-2-3.64-5.31-6.39-8.31-8.6l-1.94-1.42c4.45-1.21,9.49-2.47,14.68-3.41a27.86,27.86,0,0,1,3.27-.39c4.93-.31,10.06.57,15,1.43l3.36.57a56.77,56.77,0,0,0,12.34.95,27.9,27.9,0,0,0,3.77-.49,1.28,1.28,0,0,0,1-1.38A1.29,1.29,0,0,0,588.82,217.75ZM479.65,244.69a5.9,5.9,0,0,1-3.82,1.73,5.25,5.25,0,0,1-1.05,0h-.25a1.3,1.3,0,0,0-.81.35l-.55.53-.45.41a1.11,1.11,0,0,0-.2-.24,1.27,1.27,0,0,0-.7-.33,7.25,7.25,0,0,1,3.91-1.76h.09a14.86,14.86,0,0,0,3-.6c.35-.1.7-.2,1-.28A1.6,1.6,0,0,1,479.65,244.69Z" transform="translate(-0.83 -52.74)"/><path class="cls-4" d="M947.73,618.94c-.19-.76-1.64-1.3-2.53-2l-3.85,2.78c-1.5-2-3-5.59-4.29-5.52-8,.46-10.41-4.87-14.66-8.86-11.45-10.73-19.63-22.78-22.3-37.2-2.43-13.1-4.18-26.29-6.45-39.41-.38-2.17-1.87-4.21-2.71-6H842.83c-.42,8-11.64,17.46-19.11,18.21-4.77.48-9.41,1.89-14.1,2.92-3.52.77-7,2.09-10.52,2.32-19.85,1.29-39.75,2.06-59.57,3.56-10.44.79-20.3,1.67-30.35-2.81-3.63-1.62-10.11-5.18-15,.53-.69.8-5.45.55-5.81-.16-3.88-7.72-11.94-5.1-18.5-5.64-4.84-.41-7.13-1.6-7.09-6.2.29-34.82.13-69.64.57-104.45.19-14.45,2.11-28.9,2.17-43.35.05-13.11-2.09-26.24-1.84-39.34.13-7.08,3.24-14.11,5-21.31V293.79c-2,.31-4.95.67-7.82,1.18-7.24,1.29-3.89,5.77-4,9.42-.13,3.23-.06,7.91-2.29,9.26-2.54,1.53-8.15,1.05-11.24-.41-2.22-1-3-5.06-3.51-7.88-.57-3.24,0-6.61-.17-9.91-.6-10.45-1.31-20.9-2-31.34-.15-2.23.45-5.68-.94-6.48-11.29-6.51-4.85-17.35-8.9-25.52-.37-.75.65-2,.93-3,1.54-5.76,4.16-11.49,4.34-17.29.28-9.11-3.25-18.47,3.73-26.22l-12.34-7a3.66,3.66,0,0,0-.37-2.51A64.51,64.51,0,0,0,619,170a53.66,53.66,0,0,0-3.38,6.39c-1.11,3-.63,7.18-2.87,8.9-4.89,3.76-4.19,7.59-2.92,12,5.06,17.67.27,35.12-1.77,52.62-.15,1.27-.52,3.15-1.51,3.63C597.22,258,600.4,265,601,271.61a61.23,61.23,0,0,1-.48,13.52c-.87,6.42-.63,13.56-4,18.93-3.14,5-10.41,8.06-16.76,12.62,0-6.29,1.5-11.68-.52-15.77-1.37-2.78-7.7-3.75-11.35-5.32v36.88c6,3.59,4.83,12,4.66,19.6-.28,12.31-2.63,24.57-2.95,36.88-.24,9.35,1.72,18.72,1.85,28.1,0,3.34-1.54,9-3.86,9.66-11.36,3.13-23.22,4.91-36.34,7.44.51-7.32.7-13.35,1.43-19.33.8-6.56,3.18-12.8-1.75-19.36-4.35-5.79-6.14-13-10.27-18.91-3.57-5.14-8.44-9.76-13.47-14-3.69-3.08-9.55-4.46-12.65-7.82-2.83-3.06-3.25-7.77-5-12.45-1.1,1.31-2.45,2.22-2.29,2.83,1.8,6.76-3.28,9.37-8.61,13.1a119.71,119.71,0,0,0-21.94,19.84c-5.49,6.4-9,14.06-13.15,21.28-.67,1.17.07,2.94.19,4.43.66,8.41,1.83,16.81,1.81,25.21,0,5.67-2.33,10.07-11.31,8.92-3.28-.42-8,2-10.6,4.29-6.1,5.53-11.3,11.8-15,15.82,0,10,0,18.49,0,27,0,2.42-.82,5,0,7.22,2.64,7.33.28,16.13-7.56,19.83-5.41,2.57-12.17,3.06-18.32,4.49-4.91,1.14-10.39,1.9-8.11,8.26l-7.9,3c-.35,3.14-.64,5.69-.9,8.06-15.95,3.61-15.06,3.82-19.37,17.23-1.42,4.39-.19,15.5-13.52,11-.76-.26-2.1.9-3.23,1.28-5,1.7-9.95,3.35-13.2,4.44l-8.4-6c-1.69,1.85-3.37,3.71-5.08,5.55-1.05,1.12-1.92,2.55-3.29,3.25-17.45,8.93-37.55,9.32-56.77,11.88-5.62.75-9.2,3.59-14,4.91-2.26.63-4.39,5-4.38,7.64,0,7.32,1.2,14.64,1.84,21.1-6.9,1.81-11.56,2.86-16.08,4.25-6.33,1.94-12.42,4.52-18.86,6.09-5.34,1.3-11.07,1.39-16.56,2.31-4.32.72-8.57,2.78-11.58-2.26-.71-1.19-3.68-1.89-5.64-1.93-7.28-.18-14.66.64-21.81-.19-4-.47-8.08-3-11.4-5.39-4.63-3.28-8.58-7.26-12.82-10.93v14.65c12.78,19.94,31.52,35.86,50.5,49.65,21,15.28,43.46,28.41,65.94,41.38a7.2,7.2,0,0,1,2.78,2.72c23.4-1,46.81-1.67,70.24-1.45,60.38.56,120.56,6.21,180.88,8.24,29.91,1,59.92,1.3,89.79-.83,30.2-2.16,60.28-5.73,90.32-9.45,59.25-7.35,118.14-14.31,177.95-14,45.24.22,90.49,1,135.74,1.35v-71.5C966.48,626.87,951.18,633.25,947.73,618.94Z" transform="translate(-0.83 -52.74)"/><path class="cls-4" d="M871.48,593.51c-70.69-2.81-141.46-5-212.22-3.25-68.1,1.7-136.12,7.07-204,12-127.14,9.25-255.47,18.61-382.65,5.78l501.65,501.64L1083.5,600.41C1012.79,599.7,942.14,596.32,871.48,593.51Z" transform="translate(-0.83 -52.74)"/><text class="cls-5" transform="translate(0.5 708.27)">N<tspan class="cls-6" x="147.29" y="0">A</tspan><tspan x="300.51" y="0">T</tspan><tspan class="cls-7" x="419.48" y="0">U</tspan><tspan class="cls-8" x="571.92" y="0">RAL</tspan><tspan class="cls-9" x="980.32" y="0">I</tspan><tspan x="1066.06" y="0">S</tspan></text><text class="cls-10" transform="translate(394.06 861.71)">MASSILIA</text></g></svg>