<svg xmlns="http://www.w3.org/2000/svg" width="133" height="133" viewBox="0 0 133 133">
  <g id="check_1_" data-name="check (1)" transform="translate(0 -1028.36)">
    <circle id="Ellipse_11" data-name="Ellipse 11" cx="66.5" cy="66.5" r="66.5" transform="translate(0 1028.36)" fill="#5ae999"/>
    <path id="Tracé_561" data-name="Tracé 561" d="M55.5,106.416q1.911-.372,3.8-.855,3.2-.891,6.3-2.1t6.069-2.7a66.467,66.467,0,0,0,5.766-3.31q2.794-1.8,5.4-3.862a66.462,66.462,0,0,0,5-4.392q2.381-2.314,4.522-4.857a66.463,66.463,0,0,0,4.024-5.29q1.877-2.74,3.473-5.658t2.888-5.982a66.455,66.455,0,0,0,2.283-6.242q.842-2.78,1.439-5.625L66.968,16.054a36,36,0,0,0-50.909,50.92Z" transform="translate(24.951 1053.317)" fill="#4bd889"/>
    <path id="Tracé_562" data-name="Tracé 562" d="M38.027,2A36.018,36.018,0,1,1,12.561,12.558,35.878,35.878,0,0,1,38.027,2Zm16.4,24.935a2.788,2.788,0,0,0-1.45.573L32.747,42.686l-9.379-9.379c-2.035-2.119-6.035,1.881-3.916,3.916L30.53,48.3a2.864,2.864,0,0,0,3.613.26L56.3,31.944c1.865-1.357.716-4.976-1.59-5.009a2.77,2.77,0,0,0-.281,0Z" transform="translate(28.443 1056.818)" fill="#fff"/>
  </g>
</svg>
