<svg xmlns="http://www.w3.org/2000/svg" width="24" height="24" viewBox="0 0 24 24"><g fill="none" fill-rule="evenodd" stroke="#4A4A4A"><rect width="17" height="17" x="4.5" y="4.5" rx="2"/><path stroke-linecap="round" d="M3 19V5a2 2 0 0 1 2-2h14"/><path d="M10.064 10.347c0-.71.206-1.283.619-1.719.413-.435 1.031-.718 1.857-.848V7h1.92v.78c.84.12 1.47.398 1.89.833.419.436.629 1.013.629 1.734v.33h-2.22v-.435c0-.38-.103-.648-.31-.803-.206-.155-.494-.233-.864-.233s-.658.078-.864.233c-.206.155-.31.423-.31.803 0 .36.114.67.342.93.228.26.512.503.854.728.341.225.708.445 1.099.66.391.216.757.458 1.099.728.341.27.626.583.854.938.227.356.341.783.341 1.284 0 .72-.213 1.3-.64 1.74-.427.44-1.06.72-1.9.841v.765h-1.92v-.765c-.854-.12-1.49-.4-1.91-.84-.42-.44-.63-1.021-.63-1.741v-.72h2.22v.825c0 .38.11.645.33.795.22.15.516.225.886.225s.665-.075.886-.225c.22-.15.33-.415.33-.795 0-.36-.113-.67-.341-.93a4.186 4.186 0 0 0-.854-.729 16.012 16.012 0 0 0-1.099-.66 7.908 7.908 0 0 1-1.099-.728 3.818 3.818 0 0 1-.854-.938c-.227-.355-.341-.783-.341-1.283z"/></g></svg>