<svg xmlns="http://www.w3.org/2000/svg" enable-background="new 0 0 48 48" viewBox="0 0 48 48"><path d="M23.72,4.24l-12.75-1.2c-0.7-0.07-1.35,0.36-1.57,1.03L5.43,16.25c-0.14,0.43-0.08,0.91,0.17,1.29l17.56,26.75
		c0.22,0.33,0.56,0.56,0.95,0.65c0.1,0.02,0.2,0.03,0.3,0.03c0.29,0,0.58-0.08,0.82-0.25l16.72-10.98c0.69-0.46,0.89-1.38,0.43-2.08
		L24.83,4.91C24.58,4.53,24.17,4.29,23.72,4.24z M24.85,41.39L8.51,16.49l3.37-10.35l10.84,1.02l16.35,24.89L24.85,41.39z"/><path d="M17.57,10.31c-0.91-0.19-1.85-0.01-2.63,0.5c-0.78,0.51-1.32,1.3-1.51,2.22c-0.19,0.92-0.01,1.85,0.5,2.63
		c0.67,1.02,1.79,1.58,2.93,1.58c0.66,0,1.32-0.19,1.92-0.57c0.78-0.51,1.32-1.3,1.51-2.22c0.19-0.92,0.01-1.85-0.5-2.63
		C19.28,11.03,18.49,10.5,17.57,10.31z M17.35,13.83c-0.02,0.08-0.06,0.22-0.21,0.32c-0.23,0.15-0.54,0.09-0.69-0.14
		c-0.1-0.15-0.09-0.3-0.07-0.38c0.02-0.08,0.06-0.22,0.21-0.32c0.1-0.06,0.2-0.08,0.27-0.08c0.04,0,0.08,0.01,0.1,0.01
		c0.08,0.02,0.22,0.06,0.32,0.21c0,0,0,0,0,0C17.38,13.61,17.37,13.76,17.35,13.83z"/></svg>