<svg xmlns="http://www.w3.org/2000/svg" width="22.409" height="28.044" viewBox="0 0 22.409 28.044">
  <path id="notification" d="M26.3,22.613l-2.1-4.066a3.734,3.734,0,0,1-.421-1.683V12.1c0-3.506-3.225-6.45-7.292-6.731h0v-2.1a1.262,1.262,0,0,0-2.524,0V5.225h0C9.9,5.506,6.67,8.45,6.67,12.1V17a3.734,3.734,0,0,1-.421,1.683l-2.1,3.786a1.341,1.341,0,0,0,0,1.262,1.43,1.43,0,0,0,1.122.7H25.039a1.731,1.731,0,0,0,1.122-.561A1.4,1.4,0,0,0,26.3,22.613Zm-18.79-.7,1.122-1.963a6.383,6.383,0,0,0,.7-2.8V12.1c0-2.384,2.384-4.207,5.328-4.207h1.262c2.945,0,5.328,1.963,5.328,4.207V17a6.383,6.383,0,0,0,.7,2.8l1.122,2.244H7.512ZM19.29,25.557H18.028c-.28,0-.561.14-.561.421A2.4,2.4,0,0,1,15.224,27.8a2.149,2.149,0,0,1-2.244-1.823c0-.28-.28-.421-.561-.421H11.158c-.421,0-.7.28-.561.7a4.576,4.576,0,0,0,4.627,3.786,4.576,4.576,0,0,0,4.627-3.786A.642.642,0,0,0,19.29,25.557Z" transform="translate(-3.985 -2)" fill="#f1f1f1"/>
</svg>
