<svg id="Icon_Filtre" data-name="Icon Filtre" xmlns="http://www.w3.org/2000/svg" width="20.96" height="18.479" viewBox="0 0 20.96 18.479">
  <path id="path" d="M3.412.1A3.376,3.376,0,0,0,0,3.468,3.337,3.337,0,0,0,2.437,6.7V17.515a.936.936,0,0,0,.931.931.967.967,0,0,0,.931-.931V6.747A3.377,3.377,0,0,0,6.736,3.512,3.312,3.312,0,0,0,3.412.1Zm0,4.874A1.507,1.507,0,1,1,4.919,3.468,1.523,1.523,0,0,1,3.412,4.974Z" transform="translate(0 -0.056)" fill="#101010"/>
  <path id="path-2" data-name="path" d="M20.343,11.787V.931A.936.936,0,0,0,19.412,0a.967.967,0,0,0-.931.931V11.787A3.377,3.377,0,0,0,16,15.067a3.412,3.412,0,1,0,6.824,0A3.483,3.483,0,0,0,20.343,11.787Zm-.931,4.786a1.507,1.507,0,1,1,1.507-1.507A1.523,1.523,0,0,1,19.412,16.573Z" transform="translate(-8.91 0)" fill="#101010"/>
  <path id="path-3" data-name="path" d="M38.836,9.439A3.43,3.43,0,0,0,36.4,6.16V.931A.936.936,0,0,0,35.468,0a.967.967,0,0,0-.931.931V6.16A3.39,3.39,0,0,0,32.1,9.439a3.337,3.337,0,0,0,2.437,3.235V17.46a.936.936,0,0,0,.931.931.967.967,0,0,0,.931-.931V12.718A3.43,3.43,0,0,0,38.836,9.439Zm-3.368,1.507a1.507,1.507,0,1,1,1.507-1.507A1.523,1.523,0,0,1,35.468,10.945Z" transform="translate(-17.875 0)" fill="#101010"/>
</svg>
