<svg xmlns="http://www.w3.org/2000/svg" width="16.773" height="34" viewBox="0 0 16.773 34">
  <path id="flash" d="M34.539,50.4a.866.866,0,0,1-.336-.1,1.378,1.378,0,0,1-.561-1.3L35.4,35.646l-6.465-.05a.845.845,0,0,1-.785-.7,1.457,1.457,0,0,1,.112-1.246l10.014-16.8A.784.784,0,0,1,39.36,16.5a1.329,1.329,0,0,1,.523,1.3L38.127,29.813l5.829.05a.885.885,0,0,1,.785.648,1.611,1.611,0,0,1-.075,1.246L35.287,49.9A.825.825,0,0,1,34.539,50.4ZM30.765,33.2l5.68.05a.756.756,0,0,1,.673.449,1.4,1.4,0,0,1,.187.947l-1.233,9.423,6.166-11.816-5.231-.05a.756.756,0,0,1-.673-.449,1.479,1.479,0,0,1-.187-1l1.233-8.625Z" transform="translate(-28.06 -16.404)" fill="#f1f1f1"/>
</svg>
