<svg xmlns="http://www.w3.org/2000/svg" width="29.981" height="29.981" viewBox="0 0 29.981 29.981">
  <path id="Icon_awesome-plus" data-name="Icon awesome-plus" d="M27.84,14.028H18.2V4.392A2.142,2.142,0,0,0,16.061,2.25H13.92a2.142,2.142,0,0,0-2.142,2.142v9.637H2.142A2.142,2.142,0,0,0,0,16.17v2.142a2.142,2.142,0,0,0,2.142,2.142h9.637V30.09a2.142,2.142,0,0,0,2.142,2.142h2.142A2.142,2.142,0,0,0,18.2,30.09V20.453H27.84a2.142,2.142,0,0,0,2.142-2.142V16.17A2.142,2.142,0,0,0,27.84,14.028Z" transform="translate(0 -2.25)"/>
</svg>
