<svg xmlns="http://www.w3.org/2000/svg" width="32.813" height="32.829" viewBox="0 0 32.813 32.829">
  <g id="Groupe_69" data-name="Groupe 69" transform="translate(-1.995 -1.981)">
    <g id="_24_jobseeker" data-name="24 jobseeker" transform="translate(1.995 1.981)">
      <path id="Tracé_22" data-name="Tracé 22" d="M16.058,19.574a4.686,4.686,0,1,0-4.686-4.686A4.686,4.686,0,0,0,16.058,19.574Zm0-7.028a2.343,2.343,0,1,1-2.343,2.343A2.343,2.343,0,0,1,16.058,12.546ZM34.461,32.8l-7.684-7.673A14.057,14.057,0,1,0,9.662,28.559l.141.07a13.893,13.893,0,0,0,12.511,0l.141-.07a13.776,13.776,0,0,0,2.671-1.781L32.8,34.463A1.176,1.176,0,1,0,34.461,32.8ZM4.344,16.06a11.714,11.714,0,1,1,18.743,9.371V24.26a3.514,3.514,0,0,0-3.514-3.514H12.544A3.514,3.514,0,0,0,9.029,24.26v1.171A11.714,11.714,0,0,1,4.344,16.06Zm7.028,10.73V24.26a1.171,1.171,0,0,1,1.171-1.171h7.028a1.171,1.171,0,0,1,1.171,1.171v2.53a11.644,11.644,0,0,1-9.371,0Z" transform="translate(-1.995 -1.981)" fill="#0c2544"/>
    </g>
  </g>
</svg>
