<svg id="Groupe_27" data-name="Groupe 27" xmlns="http://www.w3.org/2000/svg" width="33.031" height="33.029" viewBox="0 0 33.031 33.029">
  <g id="compass_discover_adventure_gear" data-name="compass, discover, adventure, gear" transform="translate(0 0)">
    <path id="Tracé_17" data-name="Tracé 17" d="M25.178,4a1.27,1.27,0,0,0-.871,2.387,13.973,13.973,0,1,1-4.793-.848,1.27,1.27,0,0,0,0-2.541,16.514,16.514,0,1,0,5.664,1Z" transform="translate(-3 -3)" fill="#f1f1f1"/>
    <path id="Tracé_18" data-name="Tracé 18" d="M14.113,14.711,9.466,24.438a1.27,1.27,0,0,0,1.693,1.694l9.727-4.646a1.269,1.269,0,0,0,.6-.6l4.647-9.727a1.27,1.27,0,0,0-1.694-1.694l-9.727,4.646a1.269,1.269,0,0,0-.6.6Zm8.179-1.4-2.9,6.079-6.08,2.9,2.9-6.079Z" transform="translate(-1.285 -1.286)" fill="#f1f1f1"/>
  </g>
</svg>
