<svg xmlns="http://www.w3.org/2000/svg" width="33.054" height="33.029" viewBox="0 0 33.054 33.029">
  <g id="Groupe_74" data-name="Groupe 74" transform="translate(-0.001 -0.193)">
    <path id="XMLID_1358_" d="M32.2,28.232,28.7,24.727a4.867,4.867,0,0,0-.618-6.116l-.687-.687-2.7,2.7-3.078-3.562L32.33,7.8l.7-7.609-7.609.7L16.536,11.177,7.65.894.041.193.742,7.8l10.712,9.256L8.376,20.621l-2.7-2.7-.687.687a4.867,4.867,0,0,0-.618,6.116L.869,28.232a2.916,2.916,0,0,0,4.123,4.123L8.5,28.85a4.867,4.867,0,0,0,6.116-.618l.687-.687-2.7-2.7,3.933-3.4,3.933,3.4-2.7,2.7.687.687a4.867,4.867,0,0,0,6.116.618l3.505,3.505A2.915,2.915,0,0,0,32.2,28.232ZM2.606,6.844l-.415-4.5,4.5.415,8.56,9.906-2.527,2.925ZM3.617,30.981a.972.972,0,1,1-1.374-1.374L5.679,26.17l1.374,1.374Zm8.816-3.554a2.921,2.921,0,0,1-3.318-.569L6.366,24.109A2.921,2.921,0,0,1,5.8,20.791ZM9.754,22,26.38,2.757l4.5-.414-.415,4.5L11.225,23.47Zm8.268-1.834,2.125-1.836L23.318,22,21.846,23.47Zm2.617,7.262L22.3,25.768h0l4.977-4.978a2.921,2.921,0,0,1-.569,3.318l-2.749,2.749A2.921,2.921,0,0,1,20.639,27.427Zm10.19,3.554a.973.973,0,0,1-1.374,0l-3.436-3.436,1.374-1.374,3.436,3.436A.973.973,0,0,1,30.829,30.981Z" transform="translate(0 0)" fill="#f1f1f1"/>
  </g>
</svg>
