<svg xmlns="http://www.w3.org/2000/svg" width="30.757" height="32.829" viewBox="0 0 30.757 32.829">
  <g id="Groupe_76" data-name="Groupe 76" transform="translate(-16.101 0.001)">
    <g id="Groupe_75" data-name="Groupe 75" transform="translate(16.101 -0.001)">
      <path id="Tracé_24" data-name="Tracé 24" d="M20.586,384.98a.965.965,0,0,0-1.136-.757l-2.574.515a.965.965,0,0,0,.188,1.912,27.95,27.95,0,0,0,2.764-.534A.965.965,0,0,0,20.586,384.98Z" transform="translate(-16.101 -359.483)" fill="#f1f1f1"/>
      <path id="Tracé_25" data-name="Tracé 25" d="M66.445,440.491l-2.059,2.059a.965.965,0,1,0,1.365,1.365l2.059-2.059a.965.965,0,1,0-1.365-1.365Z" transform="translate(-61.015 -411.884)" fill="#f1f1f1"/>
      <path id="Tracé_26" data-name="Tracé 26" d="M427.829,384.738l-2.574-.515a.965.965,0,1,0-.378,1.893l2.574.515a.965.965,0,0,0,.378-1.893Z" transform="translate(-397.849 -359.483)" fill="#f1f1f1"/>
      <path id="Tracé_27" data-name="Tracé 27" d="M385.751,440.491a.965.965,0,1,0-1.365,1.365l2.059,2.059a.965.965,0,1,0,1.365-1.365Z" transform="translate(-360.425 -411.884)" fill="#f1f1f1"/>
      <path id="Tracé_28" data-name="Tracé 28" d="M98.956,10.921c-3.745-2.248-1.478-9.59-1.454-9.664A.966.966,0,0,0,96.425.013a10.474,10.474,0,0,0-3.792,1.572,7.329,7.329,0,0,0-3.125,4.439A5.99,5.99,0,0,0,87.66,4.709a.966.966,0,0,0-1.314.986,6.254,6.254,0,0,1-2.561,5.271,8.185,8.185,0,0,0-3.032,3.622,9.2,9.2,0,0,0,.66,7.721,13.593,13.593,0,0,0,2.326,3.216l7.02,7.02a.965.965,0,0,0,1.365,0l7.028-7.028a5.07,5.07,0,0,0,.666-.824C104.217,19.32,103.057,13.382,98.956,10.921Zm-16.4,4.364a6.263,6.263,0,0,1,2.362-2.754,8,8,0,0,0,3.231-5.149,7.985,7.985,0,0,1,1.96,3.654.965.965,0,0,0,1.868-.487,11.472,11.472,0,0,0-.7-1.971,5.821,5.821,0,0,1,3.972-6.213c-.544,2.721-1.017,7.967,2.722,10.211a5.5,5.5,0,0,1,2.294,2.709,6.78,6.78,0,0,1,.018,4.766,5.077,5.077,0,0,0-8.3-1.71l-.529.529-.529-.529a5.08,5.08,0,0,0-8.342,1.8,6.878,6.878,0,0,1-.017-4.858ZM91.442,30.5,85.1,24.155a3.146,3.146,0,0,1,4.45-4.449l1.211,1.211a.965.965,0,0,0,1.365,0l1.212-1.211a3.146,3.146,0,0,1,4.917,3.851c-.536.643-.6.6-.723.853Z" transform="translate(-76.063 0.001)" fill="#f1f1f1"/>
    </g>
  </g>
</svg>
