<svg id="history" xmlns="http://www.w3.org/2000/svg" width="28.835" height="28.835" viewBox="0 0 28.835 28.835">
  <path id="Tracé_569" data-name="Tracé 569" d="M0,0H28.835V28.835H0Z" fill="none"/>
  <path id="Tracé_570" data-name="Tracé 570" d="M15.587,3A10.824,10.824,0,0,0,4.462,13.814H2.311a.6.6,0,0,0-.421,1.021L5.243,18.2a.6.6,0,0,0,.853,0l3.352-3.364a.6.6,0,0,0-.433-1.021H6.865A8.408,8.408,0,0,1,15.4,5.4a8.517,8.517,0,0,1,8.29,8.29,8.415,8.415,0,0,1-8.41,8.53,8.284,8.284,0,0,1-5.142-1.778,1.2,1.2,0,0,0-1.49,1.886,10.642,10.642,0,0,0,6.632,2.295A10.824,10.824,0,0,0,26.088,13.5,10.941,10.941,0,0,0,15.587,3Zm-.613,6.007a.908.908,0,0,0-.9.9v4.421a1.216,1.216,0,0,0,.589,1.033l3.749,2.223a.9.9,0,0,0,.925-1.55l-3.46-2.055V9.9a.905.905,0,0,0-.9-.889Z" transform="translate(0.344 0.604)" fill="#f1f1f1"/>
</svg>
