<svg xmlns="http://www.w3.org/2000/svg" width="23.984" height="23.061" viewBox="0 0 23.984 23.061">
  <path id="Icon_ionic-ios-heart-empty" data-name="Icon ionic-ios-heart-empty" d="M20.9,3.938h-.058a6.56,6.56,0,0,0-5.477,3,6.56,6.56,0,0,0-5.477-3H9.832a6.518,6.518,0,0,0-6.457,6.515A14.034,14.034,0,0,0,6.131,18.1,48.3,48.3,0,0,0,15.367,27,48.3,48.3,0,0,0,24.6,18.1a14.034,14.034,0,0,0,2.756-7.651A6.518,6.518,0,0,0,20.9,3.938Zm2.4,13.214a44.22,44.22,0,0,1-7.933,7.818,44.286,44.286,0,0,1-7.933-7.824,12.438,12.438,0,0,1-2.445-6.694A4.892,4.892,0,0,1,9.844,5.558H9.9a4.834,4.834,0,0,1,2.37.623,5.038,5.038,0,0,1,1.753,1.643,1.62,1.62,0,0,0,2.71,0A5.088,5.088,0,0,1,18.48,6.18a4.834,4.834,0,0,1,2.37-.623H20.9a4.892,4.892,0,0,1,4.854,4.895A12.6,12.6,0,0,1,23.3,17.152Z" transform="translate(-3.375 -3.938)" fill="#f1f1f1"/>
</svg>
