<svg xmlns="http://www.w3.org/2000/svg" width="26.392" height="33.029" viewBox="0 0 26.392 33.029">
  <path id="notification" d="M30.268,26.277l-2.477-4.789a4.4,4.4,0,0,1-.5-1.982V13.891c0-4.129-3.8-7.6-8.588-7.927h0V3.486a1.486,1.486,0,0,0-2.973,0V5.8h0c-4.789.33-8.588,3.8-8.588,8.092v5.78a4.4,4.4,0,0,1-.5,1.982L4.175,26.111a1.579,1.579,0,0,0,0,1.486,1.684,1.684,0,0,0,1.321.826H28.782a2.039,2.039,0,0,0,1.321-.661A1.644,1.644,0,0,0,30.268,26.277Zm-22.13-.826L9.46,23.139a7.517,7.517,0,0,0,.826-3.3V13.891c0-2.808,2.807-4.954,6.276-4.954h1.486c3.468,0,6.276,2.312,6.276,4.954v5.78a7.517,7.517,0,0,0,.826,3.3l1.321,2.642H8.139Zm13.872,4.294H20.525c-.33,0-.661.165-.661.5a2.824,2.824,0,0,1-2.642,2.147,2.531,2.531,0,0,1-2.642-2.147c0-.33-.33-.5-.661-.5H12.433c-.5,0-.826.33-.661.826a5.39,5.39,0,0,0,5.45,4.459,5.39,5.39,0,0,0,5.45-4.459A.756.756,0,0,0,22.011,29.745Z" transform="translate(-3.985 -2)" fill="#fafafa"/>
</svg>
