<svg xmlns="http://www.w3.org/2000/svg" width="32.153" height="32.152" viewBox="0 0 32.153 32.152">
  <path id="profile_1_" data-name="profile (1)" d="M110.627,2027.937h-21.1a1.6,1.6,0,0,1-1.545-2.151c1.987-4.765,6.656-7.495,12.094-7.495s10.109,2.73,12.1,7.495a1.6,1.6,0,0,1-1.545,2.151m-17.115-19.291a6.565,6.565,0,1,1,6.564,6.43,6.506,6.506,0,0,1-6.564-6.43m22.569,18.706a15.3,15.3,0,0,0-9.837-11.194,9.539,9.539,0,0,0,3.563-9.008,9.865,9.865,0,0,0-19.578,1.5,9.545,9.545,0,0,0,3.68,7.512,15.3,15.3,0,0,0-9.839,11.194,3.215,3.215,0,0,0,3.231,3.8h25.548a3.214,3.214,0,0,0,3.231-3.8" transform="translate(-84 -1999)" fill="#fafafa" fill-rule="evenodd"/>
</svg>
